<svg xmlns="http://www.w3.org/2000/svg" version="1.1" xmlns:xlink="http://www.w3.org/1999/xlink" xmlns:svgjs="http://svgjs.dev/svgjs" width="1000" height="1000" viewBox="0 0 1000 1000"><rect width="1000" height="1000" fill="#000000"></rect><g transform="matrix(0.7,0,0,0.7,149.57575757575756,347.92654156352205)"><svg viewBox="0 0 396 172" data-background-color="#ffffff" preserveAspectRatio="xMidYMid meet" height="434" width="1000" xmlns="http://www.w3.org/2000/svg" xmlns:xlink="http://www.w3.org/1999/xlink"><g id="tight-bounds" transform="matrix(1,0,0,1,0.2400000000000091,0.09820556640623579)"><svg viewBox="0 0 395.52 171.80358579375834" height="171.80358579375834" width="395.52"><g><svg viewBox="0 0 462.73492856799396 200.99999999999997" height="171.80358579375834" width="395.52"><g></g><g transform="matrix(1,0,0,1,150.80981664288205,0.4999999999999858)"><svg viewBox="0 0 311.92511192511193 200" height="200" width="311.92511192511193"><g id="textblocktransform"><svg viewBox="0 0 311.92511192511193 200" height="200" width="311.92511192511193" id="textblock"><g><svg viewBox="0 0 311.92511192511193 200" height="200" width="311.92511192511193"><g transform="matrix(1,0,0,1,0,0)"><svg width="311.92511192511193" viewBox="0.14999866485595703 -36.85000228881836 192.70001220703125 119.85001373291016" height="200" data-palette-color="url(#be1a36d9-1f42-4a22-a6b1-d31f5278adb7)"><svg></svg><svg></svg><svg></svg><g class="wordmark-text-0" data-fill-palette-color="primary" id="text-0"></g></svg></g></svg></g></svg></g></svg></g><g transform="matrix(1,0,0,1,0,25.499999999999986)"><svg viewBox="0 0 116.06738511760732 150" height="150" width="116.06738511760732"><g><svg xmlns="http://www.w3.org/2000/svg" xmlns:xlink="http://www.w3.org/1999/xlink" version="1.1" x="0" y="0" viewBox="12.982999801635742 1 75.68599700927734 97.81300354003906" enable-background="new 0 0 100 100" xml:space="preserve" height="150" width="116.06738511760732" class="icon-icon-0" data-fill-palette-color="accent" id="icon-0"></svg></g></svg></g></svg></g><defs></defs><mask id="9d0bf528-5571-4eb8-abfc-ea213f7a3f58"><g id="SvgjsG3882"><svg viewBox="0 0 395.52 171.80358579375834" height="171.80358579375834" width="395.52"><g><svg viewBox="0 0 462.73492856799396 200.99999999999997" height="171.80358579375834" width="395.52"><g><rect width="5.5716241992674" height="200.99999999999997" x="130.652788780611" y="0" fill="white" opacity="1" stroke-width="0" stroke="transparent" fill-opacity="1" class="rect-o-0" rx="1%" id="SvgjsRect3881" data-palette-color="url(#be1a36d9-1f42-4a22-a6b1-d31f5278adb7)"></rect></g><g transform="matrix(1,0,0,1,150.80981664288205,0.4999999999999858)"><svg viewBox="0 0 311.92511192511193 200" height="200" width="311.92511192511193"><g id="SvgjsG3880"><svg viewBox="0 0 311.92511192511193 200" height="200" width="311.92511192511193" id="SvgjsSvg3879"><g><svg viewBox="0 0 311.92511192511193 200" height="200" width="311.92511192511193"><g transform="matrix(1,0,0,1,0,0)"><svg width="311.92511192511193" viewBox="0.14999866485595703 -36.85000228881836 192.70001220703125 119.85001373291016" height="200" data-palette-color="url(#be1a36d9-1f42-4a22-a6b1-d31f5278adb7)"><svg></svg><svg></svg><svg></svg><g class="wordmark-text-0" data-fill-palette-color="primary" id="SvgjsG3878"><path xmlns="http://www.w3.org/2000/svg" d="M8.15-34.3l12.3-0.9 3.15 2.15 1.4-1.95 2.65 2.1-4.7 5.65-1.9-1.75-2.4-3.1-7.5 1.2-3.95 4 3.05 5.65 12.95 3.4 3.05 3.75-0.9 9.75-10.35 4.8-9.15-2.5-1.55 2.5-3.05-0.7 3.05-6.7 2.55 0.75 7.9 2.55 7.8-3.1-1.5-7.75-15.35-3.15-2.85-10.45zM57.65-7.3l0.05 7.9-26-0.35-0.25-1.7 5-0.9-1.7-29.8-4.45-1.55-0.4-1.75 26.9 0.65 0.05 6.45-2.55-0.1-0.75-3.15-13.55-0.05-0.95 1.25 0.25 10.75 15.4 1.05-0.45 2.2-14.8 0.3-0.15 4.15 2.55 8.5 12.65 0.5 0.6-4.05zM81.25-19.15l4.45-4.75-1.8-6.45-7.35-1.3-5.15 0.8 0.85 11.1zM92.7-9.45l3.15 3.3-6.2 5.55-3.9-0.65-2.65-11.75-4.7-3.45-6.5 0.95 0.15 12.4 3.15 1.05 0.4 1.9-10.75-0.15-0.1-1.35 2.95-1.15-0.6-26.45-1.8-1.95-3.6-0.4 0.15-2.7 4.1-0.1 2.1 0.85 1.25-1.1 13.6 0.2 6.3 5.8-0.9 8.35-4.35 3.3 3.7 3.55 0.35 9 1.1 0.4zM124.95-34.55l-0.55 1.8-3.3 0.6-9.95 32.6-4.3-0.5-11.45-33.2-2.55-0.65 0.15-1.45 10.85-0.1 0.3 1.4-3.25 0.95 8.15 29.45h0.95l6.95-29.35-2.85-1.55 0.35-1.3zM134.05-2.1l2.95 1.1 0.1 1.5-9.55-0.75-0.05-1.45 3.45-1.1-0.85-29.95-3.65-1.25 0.1-1.35 10.7-0.1 0.3 1.8-3.35 1zM151-3.1l9.3-0.4 1.6 3.8-12.05 0.8-7.75-5.05-0.8-22.5 5.85-8.45 9.7-1.95 6.2 4.2-6.2 8.2-1.5-1.15 3.05-5.8-2.7-2.4-6.6 1.55-2.7 7v19.4zM192.8-7.3l0.05 7.9-26-0.35-0.25-1.7 5-0.9-1.7-29.8-4.45-1.55-0.4-1.75 26.9 0.65 0.05 6.45-2.55-0.1-0.75-3.15-13.55-0.05-0.95 1.25 0.25 10.75 15.4 1.05-0.45 2.2-14.8 0.3-0.15 4.15 2.55 8.5 12.65 0.5 0.6-4.05z" fill="white" fill-rule="nonzero" stroke="none" stroke-width="1" stroke-linecap="butt" stroke-linejoin="miter" stroke-miterlimit="10" stroke-dasharray="" stroke-dashoffset="0" font-family="none" font-weight="none" font-size="none" text-anchor="none" style="mix-blend-mode: normal" opacity="1"></path><path xmlns="http://www.w3.org/2000/svg" d="M30.4 39l0.35 1.95h-9.7l-1.15-1.2 3.9-1.1-1.55-7.05-1.2-2.3-12.4 1.55-0.8 2.7-0.75 5.1 3.1 1.1v1.6l-10.05-0.75v-1.6l3.05-0.75 9.3-32.6 5.45 0.8 9.75 31.8zM9.8 27.8l10.1-1.95-4.25-15.55-0.75 0.4-5.1 16.25zM62.1 5.5l-0.2 1.8-2.75 0.95-0.95 26.75-5.05 5.95-12.8 0.5-5.85-6.3-1.15-24.9-0.25-2.1-2.8-0.75 0.05-1.45 10.55-0.1 0.15 1.45-3.3 1 0.15 24.05 3.15 5.05 10.35-0.35 3.05-4.35-0.4-24.75-2.35-0.75 0.05-1.35zM72.1 6h19.3l-0.75 5.5-2.75-0.75v-1.95h-8.3l1.15 29.9 2.45 0.75v1.95l-10.25-0.35v-1.25l3.5-1.1-0.4-29.9h-2.75l-5.05 0.75v1.95l-3.2 0.4-0.4-5.9zM108.65 9.95l-9.3 0.3-2.75 10.3 2.5 11.9 6.35 5.45 4.2 0.35 6.6-11.55-2.5-11.9zM101.35 5.25l9.95 0.9 6.7 7.3 1.8 14.25-7.55 13.6-8.9 0.3-8.1-8.1-1.9-12.6 2.65-11.95z" fill="white" fill-rule="nonzero" stroke="none" stroke-width="1" stroke-linecap="butt" stroke-linejoin="miter" stroke-miterlimit="10" stroke-dasharray="" stroke-dashoffset="0" font-family="none" font-weight="none" font-size="none" text-anchor="none" style="mix-blend-mode: normal" opacity="1"></path><path xmlns="http://www.w3.org/2000/svg" d="M35.65 79.55l3.55 1.1-0.25 1.45-10.6-0.05-0.05-1.5 4.15-1.1 0.6-27.85-0.6-0.1-10.6 29.55h-2.85l-9.9-28.8-1.2 0.1 1.5 26.95 3.15 1 0.3 1.85-10.35-0.2-0.1-1.3 2.95-1.1-0.4-30.6-3.3-1.15-0.15-1.15 8.25 0.4 1.4 2.25 9.1 27.2 0.45-0.15 9.05-27.85 1.25-1.7h7.95v1.6l-2.3 0.55zM71.1 79.95l0.35 1.95h-9.7l-1.15-1.2 3.9-1.1-1.55-7.05-1.2-2.3-12.4 1.55-0.8 2.7-0.75 5.1 3.1 1.1v1.6l-10.05-0.75v-1.6l3.05-0.75 9.3-32.6 5.45 0.8 9.75 31.8zM50.5 68.75l10.1-1.95-4.25-15.55-0.75 0.4-5.1 16.25zM91.05 62.75l4.45-4.75-1.8-6.45-7.35-1.3-5.15 0.8 0.85 11.1zM102.5 72.45l3.15 3.3-6.2 5.55-3.9-0.65-2.65-11.75-4.7-3.45-6.5 0.95 0.15 12.4 3.15 1.05 0.4 1.9-10.75-0.15-0.1-1.35 2.95-1.15-0.6-26.45-1.8-1.95-3.6-0.4 0.15-2.7 4.1-0.1 2.1 0.85 1.25-1.1 13.6 0.2 6.3 5.8-0.9 8.35-4.35 3.3 3.7 3.55 0.35 9 1.1 0.4zM117.6 78.8l9.3-0.4 1.6 3.8-12.05 0.8-7.75-5.05-0.8-22.5 5.85-8.45 9.7-1.95 6.2 4.2-6.2 8.2-1.5-1.15 3.05-5.8-2.7-2.4-6.6 1.55-2.7 7v19.4zM148.45 50.9l-9.3 0.3-2.75 10.3 2.5 11.9 6.35 5.45 4.2 0.35 6.6-11.55-2.5-11.9zM141.15 46.2l9.95 0.9 6.7 7.3 1.8 14.25-7.55 13.6-8.9 0.3-8.1-8.1-1.9-12.6 2.65-11.95z" fill="white" fill-rule="nonzero" stroke="none" stroke-width="1" stroke-linecap="butt" stroke-linejoin="miter" stroke-miterlimit="10" stroke-dasharray="" stroke-dashoffset="0" font-family="none" font-weight="none" font-size="none" text-anchor="none" style="mix-blend-mode: normal" opacity="1"></path></g></svg></g></svg></g></svg></g></svg></g><g transform="matrix(1,0,0,1,0,25.499999999999986)"><svg viewBox="0 0 116.06738511760732 150" height="150" width="116.06738511760732"><g><svg xmlns="http://www.w3.org/2000/svg" xmlns:xlink="http://www.w3.org/1999/xlink" version="1.1" x="0" y="0" viewBox="12.982999801635742 1 75.68599700927734 97.81300354003906" enable-background="new 0 0 100 100" xml:space="preserve" height="150" width="116.06738511760732" class="icon-icon-0" data-fill-palette-color="accent" id="SvgjsSvg3877"></svg></g></svg></g></svg></g><defs><mask></mask></defs></svg></g></mask><linearGradient x1="0" x2="1" y1="0.5" y2="0.5" id="be1a36d9-1f42-4a22-a6b1-d31f5278adb7"><stop stop-color="#ffa62e" offset="0"></stop><stop stop-color="#f71b3d" offset="1"></stop></linearGradient><rect width="395.5199890136719" height="171.8035888671875" fill="#ffffff" mask="url(#9d0bf528-5571-4eb8-abfc-ea213f7a3f58)" data-fill-palette-color="primary"></rect><mask id="dec9dc10-baa8-4d25-8758-5d180588d3c0"><g id="SvgjsG3893"><svg viewBox="0 0 395.52 171.80358579375834" height="171.80358579375834" width="395.52"><g><svg viewBox="0 0 462.73492856799396 200.99999999999997" height="171.80358579375834" width="395.52"><g></g><g transform="matrix(1,0,0,1,150.80981664288205,0.4999999999999858)"><svg viewBox="0 0 311.92511192511193 200" height="200" width="311.92511192511193"><g id="SvgjsG3892"><svg viewBox="0 0 311.92511192511193 200" height="200" width="311.92511192511193" id="SvgjsSvg3891"><g><svg viewBox="0 0 311.92511192511193 200" height="200" width="311.92511192511193"><g transform="matrix(1,0,0,1,0,0)"><svg width="311.92511192511193" viewBox="0.14999866485595703 -36.85000228881836 192.70001220703125 119.85001373291016" height="200" data-palette-color="url(#be1a36d9-1f42-4a22-a6b1-d31f5278adb7)"><svg></svg><svg></svg><svg></svg><g class="wordmark-text-0" data-fill-palette-color="primary" id="SvgjsG3890"></g></svg></g></svg></g></svg></g></svg></g><g transform="matrix(1,0,0,1,0,25.499999999999986)"><svg viewBox="0 0 116.06738511760732 150" height="150" width="116.06738511760732"><g><svg xmlns="http://www.w3.org/2000/svg" xmlns:xlink="http://www.w3.org/1999/xlink" version="1.1" x="0" y="0" viewBox="12.982999801635742 1 75.68599700927734 97.81300354003906" enable-background="new 0 0 100 100" xml:space="preserve" height="150" width="116.06738511760732" class="icon-icon-0" data-fill-palette-color="accent" id="SvgjsSvg3889"><g fill="white"><polygon fill-rule="evenodd" clip-rule="evenodd" points="12.983,10.59 30.001,98.813 24.129,39.764 53.15,37.872 53.096,27.989    64.549,1 53.622,18.977  " fill="white"></polygon><polygon fill-rule="evenodd" clip-rule="evenodd" points="59.389,54.548 64.549,1.007 55.809,40.723 36.197,41.768 37.767,62.23    30.001,98.813 42.058,58.914  " fill="white"></polygon><polygon fill-rule="evenodd" clip-rule="evenodd" points="62.8,67.182 63.349,56.729 47.37,60.484 47.338,72.281 30.001,98.813    51.681,71.197  " fill="white"></polygon><polygon fill-rule="evenodd" clip-rule="evenodd" points="65.711,62.394 80.552,57.663 82.061,45.131 66.162,47.226  " fill="white"></polygon><polygon fill-rule="evenodd" clip-rule="evenodd" points="72.07,44.502 83.058,43.085 84.639,32.807 76.56,32.434 64.549,1    72.979,31.967  " fill="white"></polygon><polygon fill-rule="evenodd" clip-rule="evenodd" points="87.413,31.294 88.669,21.788 79.125,19.094 64.549,1 79.032,23.437    78.61,30.437  " fill="white"></polygon></g></svg></g></svg></g></svg></g><defs><mask></mask></defs><mask><g id="SvgjsG3888"><svg viewBox="0 0 395.52 171.80358579375834" height="171.80358579375834" width="395.52"><g><svg viewBox="0 0 462.73492856799396 200.99999999999997" height="171.80358579375834" width="395.52"><g></g><g transform="matrix(1,0,0,1,150.80981664288205,0.4999999999999858)"><svg viewBox="0 0 311.92511192511193 200" height="200" width="311.92511192511193"><g id="SvgjsG3886"><svg viewBox="0 0 311.92511192511193 200" height="200" width="311.92511192511193" id="SvgjsSvg3885"><g><svg viewBox="0 0 311.92511192511193 200" height="200" width="311.92511192511193"><g transform="matrix(1,0,0,1,0,0)"><svg width="311.92511192511193" viewBox="0.14999866485595703 -36.85000228881836 192.70001220703125 119.85001373291016" height="200" data-palette-color="url(#be1a36d9-1f42-4a22-a6b1-d31f5278adb7)"><svg></svg><svg></svg><svg></svg><g class="wordmark-text-0" data-fill-palette-color="primary" id="SvgjsG3884"></g></svg></g></svg></g></svg></g></svg></g><g transform="matrix(1,0,0,1,0,25.499999999999986)"><svg viewBox="0 0 116.06738511760732 150" height="150" width="116.06738511760732"><g><svg xmlns="http://www.w3.org/2000/svg" xmlns:xlink="http://www.w3.org/1999/xlink" version="1.1" x="0" y="0" viewBox="12.982999801635742 1 75.68599700927734 97.81300354003906" enable-background="new 0 0 100 100" xml:space="preserve" height="150" width="116.06738511760732" class="icon-icon-0" data-fill-palette-color="accent" id="SvgjsSvg3883"></svg></g></svg></g></svg></g><defs><mask></mask></defs></svg></g></mask></svg></g></mask><linearGradient x1="0.054" x2="0.941" y1="0.5" y2="0.5" id="cd1ec41d-a437-4209-a092-e57b6eb3df3a"><stop stop-color="#0f3054" offset="0"></stop><stop stop-color="#3b8dcb" offset="0.498"></stop><stop stop-color="#0f3054" offset="1"></stop></linearGradient><rect width="395.5199890136719" height="171.8035888671875" fill="#ffffff" mask="url(#dec9dc10-baa8-4d25-8758-5d180588d3c0)" data-fill-palette-color="accent"></rect></svg><rect width="395.52" height="171.80358579375834" fill="none" stroke="none" visibility="hidden"></rect></g></svg></g></svg>